mastitorrents.com 
http://mastitorrents.com/forums/index.php



General
Complete name                    : Prince of Persia 2010 Tsrip Hindi Dubbed
Format                           : MPEG-4
Format profile                   : Base Media
Codec ID                         : isom
File size                        : 377 MiB
Duration                         : 1h 42mn
Overall bit rate                 : 514 Kbps


Video
ID                               : 1
Format                           : AVC
Format/Info                      : Advanced Video Codec
Format profile                   : High@L4.0
Format settings, CABAC           : Yes
Format settings, ReFrames        : 3 frames
Format_Settings_GOP              : N=1
Codec ID                         : avc1
Codec ID/Info                    : Advanced Video Coding
Duration                         : 1h 42mn
Bit rate mode                    : Variable
Bit rate                         : 432 Kbps
Maximum bit rate                 : 1 347 Kbps
Width                            : 592 pixels
Height                           : 224 pixels
Display aspect ratio             : 2.643
Frame rate mode                  : Constant
Frame rate                       : 25.000 fps
Resolution                       : 8 bits
Colorimetry                      : 4:2:0
Scan type                        : Progressive
Bits/(Pixel*Frame)               : 0.130
Stream size                      : 316 MiB (84%)
Title                            : Video


Audio
ID                               : 2
Format                           : AAC
Format/Info                      : Advanced Audio Codec
Format version                   : Version 4
Format profile                   : LC
Format settings, SBR             : Yes
Format settings, PS              : No
Codec ID                         : 40
Duration                         : 1h 42mn
Bit rate mode                    : Variable
Bit rate                         : 79.4 Kbps
Maximum bit rate                 : 91.0 Kbps
Channel(s)                       : 2 channels
Channel positions                : Front: L R
Sampling rate                    : 44.1 KHz
Stream size                      : 58.1 MiB (15%)
Title                            : Hindi
Language                         : Hindi